<svg width="24" height="24" viewBox="0 0 24 24" fill="none" xmlns="http://www.w3.org/2000/svg">
<path opacity="0.4" d="M21.6599 10.4385L20.6799 14.6185C19.8399 18.2285 18.1799 19.6885 15.0599 19.3885C14.5599 19.3485 14.0199 19.2585 13.4399 19.1185L11.7599 18.7185C7.58994 17.7285 6.29994 15.6685 7.27994 11.4885L8.25994 7.29854C8.45994 6.44854 8.69994 5.70854 8.99994 5.09854C10.1699 2.67854 12.1599 2.02854 15.4999 2.81854L17.1699 3.20854C21.3599 4.18854 22.6399 6.25854 21.6599 10.4385Z" fill="#BDBDBD"/>
<path d="M15.0579 19.3916C14.4379 19.8116 13.6579 20.1616 12.7079 20.4716L11.1279 20.9916C7.1579 22.2716 5.0679 21.2016 3.7779 17.2316L2.4979 13.2816C1.2179 9.31156 2.2779 7.21156 6.2479 5.93156L7.8279 5.41156C8.2379 5.28156 8.6279 5.17156 8.9979 5.10156C8.6979 5.71156 8.4579 6.45156 8.2579 7.30156L7.2779 11.4916C6.2979 15.6716 7.5879 17.7316 11.7579 18.7216L13.4379 19.1216C14.0179 19.2616 14.5579 19.3516 15.0579 19.3916ZM17.4899 10.5116C17.4299 10.5116 17.3699 10.5016 17.2999 10.4916L12.4499 9.26156C12.2695 9.20206 12.1183 9.07629 12.027 8.90966C11.9357 8.74303 11.9111 8.54795 11.9581 8.36385C12.005 8.17975 12.1201 8.02034 12.2801 7.91783C12.4401 7.81531 12.633 7.77733 12.8199 7.81156L17.6699 9.04156C17.8437 9.08849 17.9948 9.19656 18.0954 9.34591C18.196 9.49527 18.2393 9.6759 18.2174 9.85462C18.1955 10.0334 18.1099 10.1982 17.9763 10.3189C17.8426 10.4395 17.6699 10.508 17.4899 10.5116V10.5116Z" fill="#4F4F4F"/>
<path d="M14.5609 13.8883C14.5009 13.8883 14.4409 13.8783 14.3709 13.8683L11.4609 13.1283C11.2805 13.0688 11.1293 12.943 11.0381 12.7764C10.9468 12.6098 10.9221 12.4147 10.9691 12.2306C11.0161 12.0465 11.1312 11.8871 11.2911 11.7846C11.4511 11.682 11.644 11.6441 11.8309 11.6783L14.7409 12.4183C15.1409 12.5183 15.3809 12.9283 15.2809 13.3283C15.2009 13.6683 14.9009 13.8883 14.5609 13.8883V13.8883Z" fill="#4F4F4F"/>
</svg>
