<svg width="30" height="30" viewBox="0 0 30 30" fill="none" xmlns="http://www.w3.org/2000/svg">
<path d="M21.0675 17.0587L15.4425 11.4337C15.3253 11.3166 15.1663 11.2507 15.0006 11.2507C14.8349 11.2507 14.676 11.3166 14.5587 11.4337L8.93375 17.0587C8.8199 17.1766 8.7569 17.3345 8.75832 17.4983C8.75975 17.6622 8.82548 17.819 8.94136 17.9349C9.05724 18.0507 9.214 18.1165 9.37787 18.1179C9.54174 18.1193 9.69962 18.0563 9.8175 17.9425L15 12.7587L20.1825 17.9425C20.2404 18.0008 20.3092 18.0471 20.385 18.0787C20.4609 18.1102 20.5422 18.1265 20.6244 18.1265C20.7065 18.1265 20.7879 18.1102 20.8637 18.0787C20.9395 18.0471 21.0084 18.0008 21.0662 17.9425C21.1834 17.8253 21.2492 17.6663 21.2492 17.5006C21.2492 17.3349 21.1834 17.1759 21.0662 17.0587H21.0675Z" fill="#0FA958"/>
</svg>
