<svg width="24" height="24" viewBox="0 0 24 24" fill="none" xmlns="http://www.w3.org/2000/svg">
<path d="M19 8C19.7956 8 20.5587 7.68393 21.1213 7.12132C21.6839 6.55871 22 5.79565 22 5C22 4.20435 21.6839 3.44129 21.1213 2.87868C20.5587 2.31607 19.7956 2 19 2C18.2044 2 17.4413 2.31607 16.8787 2.87868C16.3161 3.44129 16 4.20435 16 5C16 5.79565 16.3161 6.55871 16.8787 7.12132C17.4413 7.68393 18.2044 8 19 8ZM20.34 12.72H17.03C16.1 12.72 15.27 13.24 14.85 14.06L14.05 15.64C13.86 16.02 13.48 16.25 13.06 16.25H9.95C9.66 16.25 9.23 16.19 8.96 15.63L8.17 14.06C7.96844 13.6543 7.65755 13.3129 7.27237 13.0744C6.8872 12.8358 6.44305 12.7096 5.99 12.71H2.66C2.3 12.72 2 13.02 2 13.38V16.47C2 19.94 4.07 22 7.53 22H15.49C18.75 22 20.76 20.21 21 17.04V13.38C21 13.02 20.7 12.72 20.34 12.72Z" fill="#4F4F4F"/>
<path opacity="0.4" d="M19 9.5C16.52 9.5 14.5 7.48 14.5 5C14.5 4.28 14.69 3.61 14.99 3H7.52C4.07 3 2 5.06 2 8.52V16.47C2 19.94 4.07 22 7.52 22H15.47C18.93 22 20.99 19.94 20.99 16.48V9.01C20.39 9.31 19.72 9.5 19 9.5Z" fill="#4F4F4F"/>
</svg>
