<svg width="24" height="24" viewBox="0 0 24 24" fill="none" xmlns="http://www.w3.org/2000/svg">
<path d="M18.9701 3.75V7.25C18.9701 8.22 18.1901 9 17.2201 9H8.96009C8.57009 9 8.18009 8.86 7.87009 8.62L5.68009 6.87C4.81009 6.17 4.81009 4.83 5.68009 4.13L7.87009 2.38C8.18009 2.14 8.57009 2 8.96009 2H17.2201C18.1901 2 18.9701 2.78 18.9701 3.75ZM18.3401 16.87L16.1601 18.62C15.8501 18.86 15.4601 19 15.0601 19H6.80009C5.83009 19 5.05009 18.22 5.05009 17.25V13.75C5.05009 12.78 5.83009 12 6.80009 12H15.0601C15.4601 12 15.8501 12.14 16.1601 12.38L18.3401 14.13C19.2201 14.83 19.2201 16.17 18.3401 16.87Z" fill="#4F4F4F"/>
<path opacity="0.4" d="M12.75 9H11.25V12H12.75V9ZM15.75 22C15.75 22.41 15.41 22.75 15 22.75H9C8.59 22.75 8.25 22.41 8.25 22C8.25 21.59 8.59 21.25 9 21.25H11.25V19H12.75V21.25H15C15.41 21.25 15.75 21.59 15.75 22Z" fill="black"/>
</svg>
